<?xml version="1.0" encoding="utf-8"?>
<!-- Generator: Adobe Illustrator 24.0.3, SVG Export Plug-In . SVG Version: 6.00 Build 0)  -->
<svg version="1.2" baseProfile="tiny" id="Capa_1" xmlns="http://www.w3.org/2000/svg" xmlns:xlink="http://www.w3.org/1999/xlink"
	 x="0px" y="0px" viewBox="0 0 512 512" xml:space="preserve">
<path d="M484.1,263.8l4.8-7.8l-4.8-7.8c-0.8-1.3-20.1-32.5-57.6-63.7c-49.9-41.5-108.7-63.5-170-63.5c-61.3,0-120.2,21.9-170.4,63.5
	c-37.7,31.2-57.3,62.4-58.1,63.7L23,256l4.9,7.9c0.8,1.3,20.3,32.5,58.1,63.7c50.2,41.5,109.1,63.5,170.4,63.5
	c61.3,0,120.1-22,170-63.5C464,296.3,483.3,265.1,484.1,263.8z M406.5,305.2c-44.9,37.1-95.4,55.9-150,55.9
	c-54.7,0-105.3-18.8-150.5-55.9c-23.4-19.2-39.2-38.6-47-49.1c7.8-10.5,23.6-29.9,47-49.1c45.2-37.1,95.8-55.9,150.5-55.9
	c54.7,0,105.1,18.8,150,55.9c23.3,19.2,39,38.7,46.6,49.2C445.4,266.5,429.7,285.9,406.5,305.2z"/>
<path d="M256,165.9c-49.7,0-90.1,40.4-90.1,90.1s40.4,90.1,90.1,90.1s90.1-40.4,90.1-90.1S305.7,165.9,256,165.9z M256,316.1
	c-33.2,0-60.1-27-60.1-60.1s27-60.1,60.1-60.1s60.1,27,60.1,60.1S289.2,316.1,256,316.1z"/>
<path fill="#238F86" d="M30,30h62.6V0H0v91.5h30V30z"/>
<path fill="#238F86" d="M419.4,0v30H482v61.5h30V0H419.4z"/>
<path fill="#238F86" d="M30,420.5H0V512h92.6v-30H30V420.5z"/>
<path fill="#238F86" d="M482,482h-62.6v30H512v-91.5h-30V482z"/>
</svg>
